<mxfile host="drawio.corp.amazon.com" modified="2025-07-02T05:38:39.611Z" agent="Mozilla/5.0 (Macintosh; Intel Mac OS X 10_15_7) AppleWebKit/537.36 (KHTML, like Gecko) Chrome/137.0.0.0 Safari/537.36" etag="tHZZe1WYGpadfHcSInEZ" version="21.7.4" type="device">
  <diagram name="Page-1" id="nPy77Pi-_T0WPH6J_OOK">
    <mxGraphModel dx="1482" dy="785" grid="1" gridSize="10" guides="1" tooltips="1" connect="1" arrows="1" fold="1" page="1" pageScale="1" pageWidth="850" pageHeight="1100" math="0" shadow="0">
      <root>
        <mxCell id="0" />
        <mxCell id="1" parent="0" />
        <mxCell id="ZSAseiXmXqjI0HmQsFTM-41" style="edgeStyle=orthogonalEdgeStyle;curved=1;rounded=0;orthogonalLoop=1;jettySize=auto;html=1;entryX=0.25;entryY=0;entryDx=0;entryDy=0;" parent="1" source="ZSAseiXmXqjI0HmQsFTM-1" target="ZSAseiXmXqjI0HmQsFTM-2" edge="1">
          <mxGeometry relative="1" as="geometry" />
        </mxCell>
        <mxCell id="ZSAseiXmXqjI0HmQsFTM-1" value="User" style="shape=umlActor;verticalLabelPosition=bottom;verticalAlign=top;html=1;outlineConnect=0;" parent="1" vertex="1">
          <mxGeometry x="90" y="170" width="25" height="60" as="geometry" />
        </mxCell>
        <mxCell id="ZSAseiXmXqjI0HmQsFTM-29" style="edgeStyle=orthogonalEdgeStyle;curved=1;rounded=0;orthogonalLoop=1;jettySize=auto;html=1;entryX=0;entryY=0.5;entryDx=0;entryDy=0;exitX=0.5;exitY=1;exitDx=0;exitDy=0;startArrow=classic;endArrow=classic;dashed=1;" parent="1" source="ZSAseiXmXqjI0HmQsFTM-2" target="ZSAseiXmXqjI0HmQsFTM-3" edge="1">
          <mxGeometry relative="1" as="geometry" />
        </mxCell>
        <mxCell id="ZSAseiXmXqjI0HmQsFTM-30" value="hand-off" style="edgeLabel;html=1;align=center;verticalAlign=middle;resizable=0;points=[];" parent="ZSAseiXmXqjI0HmQsFTM-29" vertex="1" connectable="0">
          <mxGeometry x="-0.4187" y="17" relative="1" as="geometry">
            <mxPoint as="offset" />
          </mxGeometry>
        </mxCell>
        <mxCell id="ZSAseiXmXqjI0HmQsFTM-39" style="edgeStyle=orthogonalEdgeStyle;curved=1;rounded=0;orthogonalLoop=1;jettySize=auto;html=1;entryX=0.5;entryY=0;entryDx=0;entryDy=0;exitX=0.5;exitY=0;exitDx=0;exitDy=0;startArrow=classic;endArrow=classic;dashed=1;" parent="1" source="ZSAseiXmXqjI0HmQsFTM-2" target="ZSAseiXmXqjI0HmQsFTM-4" edge="1">
          <mxGeometry relative="1" as="geometry">
            <Array as="points">
              <mxPoint x="280" y="280" />
              <mxPoint x="670" y="280" />
            </Array>
          </mxGeometry>
        </mxCell>
        <mxCell id="ZSAseiXmXqjI0HmQsFTM-40" value="hand-off" style="edgeLabel;html=1;align=center;verticalAlign=middle;resizable=0;points=[];" parent="ZSAseiXmXqjI0HmQsFTM-39" vertex="1" connectable="0">
          <mxGeometry x="-0.0116" relative="1" as="geometry">
            <mxPoint as="offset" />
          </mxGeometry>
        </mxCell>
        <mxCell id="swlf1vHESyoEdP_gWS5g-5" style="edgeStyle=orthogonalEdgeStyle;rounded=0;orthogonalLoop=1;jettySize=auto;html=1;entryX=0.5;entryY=0;entryDx=0;entryDy=0;entryPerimeter=0;" edge="1" parent="1" source="ZSAseiXmXqjI0HmQsFTM-2" target="swlf1vHESyoEdP_gWS5g-4">
          <mxGeometry relative="1" as="geometry" />
        </mxCell>
        <mxCell id="ZSAseiXmXqjI0HmQsFTM-2" value="Existing Mortgage Agent" style="rounded=1;whiteSpace=wrap;html=1;fillColor=#67ab9f;strokeColor=#f3f1f1;" parent="1" vertex="1">
          <mxGeometry x="220" y="346" width="120" height="60" as="geometry" />
        </mxCell>
        <mxCell id="swlf1vHESyoEdP_gWS5g-3" style="edgeStyle=orthogonalEdgeStyle;rounded=0;orthogonalLoop=1;jettySize=auto;html=1;entryX=0.5;entryY=0;entryDx=0;entryDy=0;entryPerimeter=0;" edge="1" parent="1" source="ZSAseiXmXqjI0HmQsFTM-3" target="swlf1vHESyoEdP_gWS5g-2">
          <mxGeometry relative="1" as="geometry" />
        </mxCell>
        <mxCell id="ZSAseiXmXqjI0HmQsFTM-3" value="Mortgage Application&lt;br&gt;&amp;nbsp;Agent" style="rounded=1;whiteSpace=wrap;html=1;fillColor=#ea6b66;strokeColor=#a680b8;arcSize=30;" parent="1" vertex="1">
          <mxGeometry x="425" y="470" width="115" height="60" as="geometry" />
        </mxCell>
        <mxCell id="ZSAseiXmXqjI0HmQsFTM-13" style="edgeStyle=orthogonalEdgeStyle;curved=1;rounded=0;orthogonalLoop=1;jettySize=auto;html=1;" parent="1" source="ZSAseiXmXqjI0HmQsFTM-4" target="ZSAseiXmXqjI0HmQsFTM-11" edge="1">
          <mxGeometry relative="1" as="geometry" />
        </mxCell>
        <mxCell id="ZSAseiXmXqjI0HmQsFTM-32" style="edgeStyle=orthogonalEdgeStyle;curved=1;rounded=0;orthogonalLoop=1;jettySize=auto;html=1;entryX=1;entryY=0.5;entryDx=0;entryDy=0;exitX=0.5;exitY=1;exitDx=0;exitDy=0;startArrow=classic;endArrow=classic;dashed=1;" parent="1" source="ZSAseiXmXqjI0HmQsFTM-4" target="ZSAseiXmXqjI0HmQsFTM-3" edge="1">
          <mxGeometry relative="1" as="geometry" />
        </mxCell>
        <mxCell id="ZSAseiXmXqjI0HmQsFTM-33" value="hand-off" style="edgeLabel;html=1;align=center;verticalAlign=middle;resizable=0;points=[];" parent="ZSAseiXmXqjI0HmQsFTM-32" vertex="1" connectable="0">
          <mxGeometry x="-0.2783" y="-11" relative="1" as="geometry">
            <mxPoint as="offset" />
          </mxGeometry>
        </mxCell>
        <mxCell id="ZSAseiXmXqjI0HmQsFTM-4" value="General Mortgage&lt;br&gt;Agent" style="rounded=1;whiteSpace=wrap;html=1;fillColor=#d4e1f5;" parent="1" vertex="1">
          <mxGeometry x="610" y="346" width="120" height="60" as="geometry" />
        </mxCell>
        <mxCell id="ZSAseiXmXqjI0HmQsFTM-11" value="Document Store" style="sketch=0;outlineConnect=0;fontColor=#232F3E;gradientColor=none;fillColor=#7AA116;strokeColor=none;dashed=0;verticalLabelPosition=bottom;verticalAlign=top;align=center;html=1;fontSize=12;fontStyle=0;aspect=fixed;pointerEvents=1;shape=mxgraph.aws4.bucket;" parent="1" vertex="1">
          <mxGeometry x="780" y="352" width="46.15" height="48" as="geometry" />
        </mxCell>
        <mxCell id="swlf1vHESyoEdP_gWS5g-2" value="" style="sketch=0;html=1;dashed=0;whitespace=wrap;fillColor=#2875E2;strokeColor=#ffffff;points=[[0.005,0.63,0],[0.1,0.2,0],[0.9,0.2,0],[0.5,0,0],[0.995,0.63,0],[0.72,0.99,0],[0.5,1,0],[0.28,0.99,0]];verticalLabelPosition=bottom;align=center;verticalAlign=top;shape=mxgraph.kubernetes.icon;prIcon=api" vertex="1" parent="1">
          <mxGeometry x="442.5" y="610" width="80" height="58" as="geometry" />
        </mxCell>
        <mxCell id="swlf1vHESyoEdP_gWS5g-4" value="" style="sketch=0;html=1;dashed=0;whitespace=wrap;fillColor=#2875E2;strokeColor=#ffffff;points=[[0.005,0.63,0],[0.1,0.2,0],[0.9,0.2,0],[0.5,0,0],[0.995,0.63,0],[0.72,0.99,0],[0.5,1,0],[0.28,0.99,0]];verticalLabelPosition=bottom;align=center;verticalAlign=top;shape=mxgraph.kubernetes.icon;prIcon=api" vertex="1" parent="1">
          <mxGeometry x="90" y="510" width="80" height="58" as="geometry" />
        </mxCell>
      </root>
    </mxGraphModel>
  </diagram>
</mxfile>
